<svg id="Layer_1" data-name="Layer 1" xmlns="http://www.w3.org/2000/svg" viewBox="0 0 917.35 865"><defs><style>.cls-1,.cls-2{fill:#231f20;}.cls-1{stroke:#231f20;stroke-linecap:round;stroke-linejoin:round;stroke-width:6px;}</style></defs><path class="cls-1" d="M631.54,444.22s0-294.59,282.81-294.59C914.35,444.22,631.54,444.22,631.54,444.22Z"/><path class="cls-1" d="M427,444.64S427,3,3,3C3,444.64,427,444.64,427,444.64Z"/><path class="cls-2" d="M534.34,865a10,10,0,0,1-10-10c0-190.43-34.55-295-63.54-349.18-31.05-58-62.33-71.8-62.64-71.94a10,10,0,0,1,7.55-18.52c1.49.6,36.81,15.38,71.22,78.25,19.68,35.95,35.33,80.69,46.51,133,13.87,64.86,20.9,141.71,20.9,228.42A10,10,0,0,1,534.34,865Z"/><path class="cls-2" d="M534.34,865a10,10,0,0,1-10-10c0-75.92,6.26-145.71,18.61-207.44,9.93-49.62,23.79-94.21,41.21-132.54,30.1-66.22,60.5-91,61.78-92a10,10,0,0,1,12.52,15.59c-.52.43-28.88,24.11-56.91,86.55-26.1,58.11-57.21,162.51-57.21,329.88A10,10,0,0,1,534.34,865Z"/></svg>