<svg id="Layer_1" data-name="Layer 1" xmlns="http://www.w3.org/2000/svg" viewBox="0 0 164.06 100.01"><defs><style>.cls-1{fill:#231f20;}.cls-2{fill:none;stroke:#231f20;stroke-linecap:round;stroke-miterlimit:10;stroke-width:5px;}</style></defs><path class="cls-1" d="M84.74,3.16c.84,5.71-.2,11.52.22,17.26a47.85,47.85,0,0,0,4,15.29c2,4.72,4.49,9.21,6.94,13.71,2.58,4.74,5.05,9.34,6.12,14.67A88.52,88.52,0,0,1,103.28,73a18,18,0,0,1-.85,8.58,2.51,2.51,0,0,0,1.75,3.07,2.54,2.54,0,0,0,3.07-1.74c2.11-5.27,1-11.22.16-16.64a44.85,44.85,0,0,0-1.84-8.2,56.37,56.37,0,0,0-3.52-7.71c-4.76-9-10.68-18-12-28.35-.82-6.7.45-13.43-.53-20.13A2.52,2.52,0,0,0,86.49.09a2.57,2.57,0,0,0-1.75,3.07Z"/><path class="cls-1" d="M85.11,9.83a49.82,49.82,0,0,1-1.27,11.43c-.93,3.42-3,6.29-5.08,9.14-4,5.56-8.1,11.37-13.7,15.42C59.78,49.65,53.6,52,48.47,56.09,43,60.45,40.08,66.7,37.93,73.22c-2.63,8-5.51,16.57-3.44,25,.76,3.12,5.59,1.8,4.82-1.33-1.77-7.22,1-14.74,3.18-21.56,2-6.16,4.54-12.1,9.94-16,5.13-3.74,11.13-6.06,16.18-9.94,5.68-4.37,10-10.14,14.09-15.93C85,30.18,87.39,26.91,88.54,23c1.25-4.21,1.42-8.83,1.57-13.19.11-3.21-4.89-3.21-5,0Z"/><path class="cls-1" d="M47,57.34a34.23,34.23,0,0,1-7.47,6A68.33,68.33,0,0,0,31.88,69c-4.65,4.12-8.5,9.28-10.12,15.34-.83,3.11,4,4.44,4.83,1.33,1.47-5.53,5.14-10,9.42-13.65,4.62-4,10.48-6.53,14.49-11.19a2.55,2.55,0,0,0,0-3.53,2.51,2.51,0,0,0-3.53,0Z"/><path class="cls-1" d="M61.93,48.59c-2.33,2.29-3.18,5.33-3.51,8.49C58.07,60.5,58.15,64,58,67.43c-.35,7.2,0,14.6,4.77,20.42a2.52,2.52,0,0,0,3.54,0,2.55,2.55,0,0,0,0-3.53C62.51,79.67,62.71,73.06,63,67.43c.14-3,.16-6.05.33-9.06.13-2.24.48-4.61,2.15-6.24,2.3-2.26-1.23-5.79-3.54-3.54Z"/><path class="cls-1" d="M83.42,23.45c-1.11,5-.74,10.09-.16,15.17s1.25,10.3,1.94,15.44c.36,2.62.72,5.25,1.1,7.88.27,1.93.67,4.08-.15,5.94a20.18,20.18,0,0,1-4,5.17,41.7,41.7,0,0,1-5.08,4.59,2.58,2.58,0,0,0-.89,3.42,2.52,2.52,0,0,0,3.42.89,47.91,47.91,0,0,0,8.26-7.84A18.61,18.61,0,0,0,91,69.25a12.47,12.47,0,0,0,.53-5.91c-.95-8.33-2.3-16.62-3.25-25-.52-4.5-1-9.13,0-13.6.69-3.14-4.13-4.48-4.83-1.33Z"/><path class="cls-1" d="M86.49,63.39c2.09,9.52-1.22,19.19-4.24,28.14-1,3.06,3.8,4.37,4.82,1.33,3.34-9.9,6.55-20.3,4.24-30.8-.68-3.15-5.51-1.82-4.82,1.33Z"/><path class="cls-1" d="M96.42,50.33A20.3,20.3,0,0,0,106.08,58a19.43,19.43,0,0,0,6,1.21c1.69.07,3.88-.39,5.43.47a5,5,0,0,1,1.65,1.88c.68,1.07,1.32,2.17,2,3.27,1.22,2.06,2.41,4.14,3.71,6.16a41.77,41.77,0,0,0,8.82,10.28,33.81,33.81,0,0,0,13.17,6.46c3.13.75,4.46-4.07,1.33-4.82a29.06,29.06,0,0,1-10.82-5.07,35.61,35.61,0,0,1-8.06-9.19c-1.26-1.94-2.42-3.94-3.59-5.93a35.7,35.7,0,0,0-3.78-5.83,8.43,8.43,0,0,0-5.68-2.61c-1.85-.18-3.72.09-5.56-.2a14.93,14.93,0,0,1-10-6.28c-1.78-2.66-6.12-.16-4.31,2.52Z"/><path class="cls-1" d="M118.24,60.45c3,1.78,5.88,3.62,8.86,5.35s6,2.6,9.21,1.49c2.83-1,5.15-3,7.37-4.88a16.21,16.21,0,0,0,5.22-7.13c1-3.07-3.83-4.38-4.82-1.33-.66,2-2.35,3.55-3.93,4.93s-3.43,3.11-5.54,3.71c-2.28.66-4.23-.65-6.12-1.79q-3.87-2.32-7.72-4.67c-2.76-1.67-5.28,2.65-2.53,4.32Z"/><path class="cls-1" d="M121.8,64.61q5.28,16.06,9.64,32.4c.83,3.11,5.65,1.79,4.82-1.33q-4.37-16.34-9.64-32.4c-1-3.05-5.83-1.74-4.82,1.33Z"/><path class="cls-1" d="M77.18,32.91A11.67,11.67,0,0,1,56.94,30.6a2.58,2.58,0,0,0-3.08-1.74,2.5,2.5,0,0,0-1.74,3.07,16.65,16.65,0,0,0,29.37,3.5A2.51,2.51,0,0,0,80.6,32a2.56,2.56,0,0,0-3.42.9Z"/><path class="cls-1" d="M86.84,30c.15,2,1.46,3.58,2.87,5a20.27,20.27,0,0,0,4,3,19.91,19.91,0,0,0,9.56,2.57,2.52,2.52,0,0,0,2.5-2.5,2.55,2.55,0,0,0-2.5-2.5,18.22,18.22,0,0,1-2-.12c.24,0,.28,0,0,0l-.54-.09-1-.22A17.46,17.46,0,0,1,98,34.47l-.41-.16c.33.13.09,0-.1-.06s-.58-.28-.87-.43c-.54-.29-1.07-.61-1.58-1l-.45-.32c-.18-.12-.2-.14,0,0-.26-.2-.51-.41-.75-.62a16.45,16.45,0,0,1-1.39-1.38c-.12-.13-.23-.27-.35-.41s-.15-.21,0,0l-.24-.37c-.24-.39,0,.06,0,.24a2.5,2.5,0,0,0-5,0Z"/><line class="cls-2" x1="2.5" y1="2.5" x2="161.56" y2="2.5"/></svg>